<mxfile host="65bd71144e">
    <diagram id="eojqt1fMiLazY7hnK-jc" name="Page-1">
        <mxGraphModel dx="1074" dy="741" grid="1" gridSize="10" guides="1" tooltips="1" connect="1" arrows="1" fold="1" page="1" pageScale="1" pageWidth="827" pageHeight="1169" math="0" shadow="0">
            <root>
                <mxCell id="0"/>
                <mxCell id="1" parent="0"/>
                <mxCell id="2" value="" style="verticalLabelPosition=bottom;verticalAlign=top;html=1;shape=mxgraph.basic.rect;fillColor2=none;strokeWidth=1;size=20;indent=5;" vertex="1" parent="1">
                    <mxGeometry x="40" y="40" width="420" height="260" as="geometry"/>
                </mxCell>
                <mxCell id="3" value="" style="verticalLabelPosition=bottom;verticalAlign=top;html=1;shape=mxgraph.basic.rect;fillColor2=none;strokeWidth=1;size=20;indent=5;" vertex="1" parent="1">
                    <mxGeometry x="40" y="40" width="420" height="40" as="geometry"/>
                </mxCell>
                <mxCell id="4" value="Random Number Game, with JS" style="text;html=1;align=center;verticalAlign=middle;resizable=0;points=[];autosize=1;strokeColor=none;fillColor=none;" vertex="1" parent="1">
                    <mxGeometry x="35" y="50" width="190" height="20" as="geometry"/>
                </mxCell>
                <mxCell id="5" value="" style="line;strokeWidth=1;html=1;perimeter=backbonePerimeter;points=[];outlineConnect=0;" vertex="1" parent="1">
                    <mxGeometry x="50" y="120" width="140" height="10" as="geometry"/>
                </mxCell>
                <mxCell id="6" value="" style="ellipse;whiteSpace=wrap;html=1;aspect=fixed;strokeWidth=1;fillColor=#000000;" vertex="1" parent="1">
                    <mxGeometry x="80" y="120" width="10" height="10" as="geometry"/>
                </mxCell>
                <mxCell id="8" value="Pick a number from 1-6." style="text;html=1;align=center;verticalAlign=middle;resizable=0;points=[];autosize=1;strokeColor=none;fillColor=none;" vertex="1" parent="1">
                    <mxGeometry x="50" y="90" width="140" height="20" as="geometry"/>
                </mxCell>
                <mxCell id="9" value="Guess!" style="rounded=1;whiteSpace=wrap;html=1;strokeWidth=1;fillColor=#FFFFFF;" vertex="1" parent="1">
                    <mxGeometry x="50" y="160" width="80" height="20" as="geometry"/>
                </mxCell>
                <mxCell id="11" value="1" style="text;html=1;align=center;verticalAlign=middle;resizable=0;points=[];autosize=1;strokeColor=none;fillColor=none;" vertex="1" parent="1">
                    <mxGeometry x="75" y="130" width="20" height="20" as="geometry"/>
                </mxCell>
                <mxCell id="12" value="True" style="text;html=1;align=center;verticalAlign=middle;resizable=0;points=[];autosize=1;strokeColor=none;fillColor=none;" vertex="1" parent="1">
                    <mxGeometry x="50" y="200" width="40" height="20" as="geometry"/>
                </mxCell>
            </root>
        </mxGraphModel>
    </diagram>
</mxfile>